<svg version="1.0" xmlns="http://www.w3.org/2000/svg"
 width="21.000000pt" height="21.000000pt" viewBox="0 0 21.000000 21.000000"
 preserveAspectRatio="xMidYMid meet">
<g transform="translate(0.000000,21.000000) scale(0.100000,-0.100000)"
fill="#000000" stroke="none">
<path d="M2 108 l-2 -108 58 2 57 2 -52 3 -52 4 -4 102 -3 102 -2 -107z"/>
<path d="M148 203 l52 -4 0 -44 0 -44 -52 -4 -53 -3 52 -2 52 -2 4 -52 c2 -29
4 -5 5 55 l2 107 -57 -2 -58 -2 53 -3z"/>
<path d="M52 108 l-2 -58 58 2 57 2 -52 3 -52 4 -4 52 -3 52 -2 -57z"/>
</g>
</svg>
